<?xml version="1.0" encoding="UTF-8" standalone="no"?>
<svg
   xmlns:dc="http://purl.org/dc/elements/1.1/"
   xmlns:cc="http://creativecommons.org/ns#"
   xmlns:rdf="http://www.w3.org/1999/02/22-rdf-syntax-ns#"
   xmlns:svg="http://www.w3.org/2000/svg"
   xmlns="http://www.w3.org/2000/svg"
   xmlns:xlink="http://www.w3.org/1999/xlink"
   width="2000"
   height="2000"
   viewBox="0 0 529.16666 529.16669"
   version="1.1"
   id="svg8">
  <defs
     id="defs2">
    <linearGradient
       id="Semired"
       gradientUnits="userSpaceOnUse"
       x1="1120.3514"
       y1="436.23169"
       x2="760.60211"
       y2="1424.7605"
       name="Layer 25"
       zoom="1"
       data-layer-id="1577800604179">
      <stop
         offset="0"
         style="stop-color:#ff0000;stop-opacity:1"
         id="stop1154" />
      <stop
         offset="1"
         style="stop-color:#cc0000;stop-opacity:1"
         id="stop1156" />
    </linearGradient>
    <linearGradient
       id="Semiblack"
       gradientUnits="userSpaceOnUse"
       x1="1120.3514"
       y1="436.23169"
       x2="760.60211"
       y2="1424.7605"
       name="Layer 25"
       zoom="1"
       data-layer-id="1577800604179">
      <stop
         offset="0"
         style="stop-color:#000000;stop-opacity:1"
         id="stop1053" />
      <stop
         offset="1"
         style="stop-color:#333333;stop-opacity:1"
         id="stop1055" />
    </linearGradient>
    <linearGradient
       xlink:href="#Semiblack"
       id="linearGradient1085"
       x1="643.32147"
       y1="809.75244"
       x2="1383.4773"
       y2="1238.6932"
       gradientUnits="userSpaceOnUse" />
    <linearGradient
       xlink:href="#Semiblack"
       id="linearGradient876"
       gradientUnits="userSpaceOnUse"
       x1="643.32147"
       y1="809.75244"
       x2="1383.4773"
       y2="1238.6932" />
    <linearGradient
       xlink:href="#Semiblack"
       id="linearGradient878"
       gradientUnits="userSpaceOnUse"
       x1="643.32147"
       y1="809.75244"
       x2="1383.4773"
       y2="1238.6932" />
  </defs>
  <metadata
     id="metadata5">
    <rdf:RDF>
      <cc:Work
         rdf:about="">
        <dc:format>image/svg+xml</dc:format>
        <dc:type
           rdf:resource="http://purl.org/dc/dcmitype/StillImage" />
        <dc:title></dc:title>
      </cc:Work>
    </rdf:RDF>
  </metadata>
  <g
     id="layer4"
     style="display:inline;opacity:1;mix-blend-mode:normal;fill:#ffffff"
     transform="matrix(2.0068451,0,0,2.0068451,0.1855738,-18.920442)">
    <g
       id="g1005"
       transform="matrix(0.25979248,0,0,0.25979248,-128.17194,-119.02072)"
       style="fill:#ffffff;fill-opacity:1;stroke:none;stroke-width:1.01844;stroke-miterlimit:4;stroke-dasharray:none">
      <path
         class="st12"
         d="m 1061.86,775.43 c -6.3582,4.50138 -29.32,6.62561 -35.4242,3.73048 -5.99,-3.27 -11.11,-8.16 -17.64,-10.18 -7.5574,-1.46306 -15.51092,2.94626 -29.64002,2.08 -10.96966,-0.67256 -34.56279,-13.31513 -42.12139,-18.85808 11.09008,1.04561 27.54561,3.72217 38.78561,-0.9824 11.24,-5.41 22.92,-12.42 35.21,-10.44 20.55,3.34 30.6,29.59 50.83,34.65 z"
         name="Layer 26"
         zoom="1"
         data-layer-id="0913120204193"
         style="display:inline;fill:#ffffff;fill-opacity:1;stroke:none;stroke-width:1.01844;stroke-miterlimit:4;stroke-dasharray:none;stroke-opacity:1"
         id="path374" />
      <path
         class="st4"
         d="m 1404.8966,1093.29 c -0.2595,-13.1047 -1.0879,-26.2592 -2.5551,-39.4238 -7.4755,-66.55128 -31.2496,-130.48765 -68.757,-185.38151 -0.1,-0.12974 -0.1597,-0.25949 -0.2595,-0.37926 0.1596,-0.18964 0.3193,-0.34933 0.479,-0.53896 1.0879,-1.17772 2.1758,-2.39537 3.1639,-3.58307 47.7377,-55.88195 20.6401,-101.38396 20.6401,-101.38396 -28.7245,-0.31938 -57.7384,-1.53703 -86.4928,-4.38153 -24.283,-4.18191 -47.7376,-10.73923 -69.2361,-18.18484 -73.4088,-17.3296 -133.2182,-76.50555 -199.614,-96.52335 -14.12269,-4.12203 -29.10372,-5.71895 -44.34425,-5.45945 1.40728,-52.94762 19.10306,-102.69143 48.78565,-143.62228 -94.96096,28.21817 -153.32982,111.4745 -177.982,190.83454 -15.50549,-57.01979 -12.28401,-134.8609 -4.74466,-169.58569 -47.92255,39.38076 -93.95278,92.80797 -115.56653,142.95358 -25.66038,61.22162 -30.22156,127.96256 -25.24119,201.86965 0,0 -26.48878,27.57668 -49.30467,78.94735 -25.24119,52.10924 -39.36388,110.54618 -39.36388,172.31678 0,127.3837 59.33527,241.8723 152.85443,314.2723 35.91057,27.2174 75.46408,48.087 117.13351,62.1099 41.65944,14.0229 85.46474,21.2489 130.00861,21.2489 16.16878,0 32.46718,-0.9581 48.75568,-2.8744 108.5402,-12.8751 205.5426,-66.8707 273.1519,-152.086 59.3851,-74.8652 90.1856,-166.3383 88.4889,-261.145 z m -208.9262,325.6404 c -46.793,29.7506 -111.0173,50.2233 -161.6675,55.4928 -76.91133,8.0844 -153.2038,-7.4456 -220.01462,-44.0947 -36.38963,-20.6401 -111.08951,-82.3824 -127.00442,-172.9855 -7.30638,-97.7523 66.96817,-219.8865 101.18436,-248.9985 -41.84214,6.2684 -87.4452,43.0163 -118.76036,64.5751 0,0 41.97883,-229.18684 241.35331,-280.7172 -51.09121,-39.39383 -69.08522,-77.67128 -71.85985,-83.27046 41.15043,-24.12335 110.13584,-46.67827 153.88125,-33.90297 67.16383,23.12101 116.89663,67.48144 199.86353,96.63315 22.8159,7.82486 30.2216,10.32004 56.0117,15.68966 20.2209,4.22183 25.2412,13.48392 29.1436,18.18483 14.5419,17.57602 44.8932,34.22383 71.0227,-2.585 -0.6088,5.45945 -1.9762,11.0187 -3.9623,16.45818 -4.152,11.40794 -10.8291,22.26694 -17.9553,30.7705 -27.8016,36.84742 -67.6451,46.0469 -110.1969,51.82978 -58.6267,7.86479 -118.5408,13.80331 -172.9855,36.99846 -53.26558,29.31059 -100.17877,61.76637 -114.90784,118.76037 31.94075,-32.7265 62.56768,-47.7188 98.12024,-57.2194 -109.81372,116.8318 -134.20879,173.9376 -122.67308,364.3757 4.30213,-42.1909 5.7456,-76.3252 30.13174,-101.0547 v 0 c 35.44201,101.9205 103.98644,148.0749 261.27524,155.0599 z"
         name="Layer 9"
         zoom="1"
         data-layer-id="2041281603918"
         style="display:inline;fill:#ffffff;fill-opacity:1;stroke:none;stroke-width:1.01844;stroke-miterlimit:4;stroke-dasharray:none;stroke-opacity:1"
         id="path999" />
    </g>
  </g>
  <style
     type="text/css"
     id="style999">
	.st0{fill:#1D9BF0;}
</style>
  <style
     type="text/css"
     id="style1027">
	.st0{fill:#1D9BF0;}
	.st1{fill:#FFFFFF;}
</style>
</svg>
